<?xml version="1.0" standalone="no"?><!DOCTYPE svg PUBLIC "-//W3C//DTD SVG 1.1//EN" "http://www.w3.org/Graphics/SVG/1.1/DTD/svg11.dtd"><svg t="1552662230021" class="icon" style="" viewBox="0 0 1024 1024" version="1.1" xmlns="http://www.w3.org/2000/svg" p-id="2575" xmlns:xlink="http://www.w3.org/1999/xlink" width="32" height="32"><defs><style type="text/css"></style></defs><path d="M810.666667 128h-21.333334v277.333333a85.333333 85.333333 0 0 1-85.333333 85.333334H320a85.333333 85.333333 0 0 1-85.333333-85.333334V128h-21.333334a85.333333 85.333333 0 0 0-85.333333 85.333333v597.333334a85.333333 85.333333 0 0 0 85.333333 85.333333h597.333334a85.333333 85.333333 0 0 0 85.333333-85.333333V213.333333a85.333333 85.333333 0 0 0-85.333333-85.333333z" p-id="2576" fill="#6c5ce7"></path><path d="M298.666667 128v256a42.666667 42.666667 0 0 0 42.666666 42.666667h341.333334a42.666667 42.666667 0 0 0 42.666666-42.666667V128z m341.333333 181.333333a32 32 0 0 1-64 0v-64a32 32 0 0 1 64 0z" p-id="2577" fill="#6c5ce7"></path></svg>