<?xml version="1.0" standalone="no"?><!DOCTYPE svg PUBLIC "-//W3C//DTD SVG 1.1//EN" "http://www.w3.org/Graphics/SVG/1.1/DTD/svg11.dtd"><svg t="1551690019027" class="icon" style="" viewBox="0 0 1024 1024" version="1.1" xmlns="http://www.w3.org/2000/svg" p-id="2063" xmlns:xlink="http://www.w3.org/1999/xlink" width="48" height="48"><defs><style type="text/css"></style></defs><path d="M776.028 602.112v174.08H247.972v-174.08h-94.229V870.42h716.514V602.112z" fill="#d4237a" p-id="2064"></path><path d="M640.573 266.404V171.09c0-6.8 5.018-13.62 11.1-16.118 6.104-2.867 14.705-1.085 19.313 3.584l194.54 163.717c6.451 6.8 6.082 17.92 0 24.72L670.31 509.624c-3.235 3.236-7.905 5.387-11.817 5.387a20.439 20.439 0 0 1-6.82-1.086c-6.082-2.498-11.1-8.95-11.1-16.118v-89.559c-229.99 0-243.978 53.371-273.346 206.705-68.444-238.572 100.31-348.55 273.346-348.55" fill="#d4237a" p-id="2065"></path></svg>