<?xml version="1.0" standalone="no"?><!DOCTYPE svg PUBLIC "-//W3C//DTD SVG 1.1//EN" "http://www.w3.org/Graphics/SVG/1.1/DTD/svg11.dtd"><svg t="1554776781397" class="icon" style="" viewBox="0 0 1024 1024" version="1.1" xmlns="http://www.w3.org/2000/svg" p-id="1988" xmlns:xlink="http://www.w3.org/1999/xlink" width="32" height="32"><defs><style type="text/css"></style></defs><path d="M1010.688 866.304H1024v74.752h-13.312v-74.752z m0-123.904H1024v74.752h-13.312V742.4z m0-123.904H1024v74.752h-13.312v-74.752z m0-122.88H1024v74.752h-13.312v-74.752z m0-123.904H1024v74.752h-13.312v-74.752z m0-123.904H1024v74.752h-13.312v-74.752z m0-123.904H1024v74.752h-13.312v-74.752z m0-123.904H1024v74.752h-13.312V0zM907.264 0h74.752v13.312h-74.752V0z m-122.88 0h74.752v13.312h-74.752V0zM660.48 0h74.752v13.312H660.48V0zM536.576 0h74.752v13.312h-74.752V0zM412.672 0h74.752v13.312h-74.752V0zM288.768 0h74.752v13.312h-74.752V0zM164.864 0h74.752v13.312h-74.752V0zM40.96 0h74.752v13.312H40.96V0zM0 990.208V1024h33.792v-13.312h-20.48v-20.48H0z m0-123.904h13.312v74.752H0v-74.752zM0 742.4h13.312v74.752H0V742.4z m0-123.904h13.312v74.752H0v-74.752z m0-122.88h13.312v74.752H0v-74.752z m0-123.904h13.312v74.752H0v-74.752z m0-123.904h13.312v74.752H0v-74.752z m0-123.904h13.312v74.752H0v-74.752zM0 0h13.312v74.752H0V0z m82.944 1010.688h74.752V1024H82.944v-13.312z m122.88 0h74.752V1024h-74.752v-13.312z m498.688-516.096H529.408V319.488h-33.792v175.104H320.512v33.792h175.104v175.104h33.792v-174.08h175.104v-34.816z m-374.784 516.096h74.752V1024h-74.752v-13.312z m123.904 0h74.752V1024h-74.752v-13.312z m123.904 0h74.752V1024h-74.752v-13.312z m123.904 0h74.752V1024H701.44v-13.312z m123.904 0h74.752V1024h-74.752v-13.312z m185.344-20.48v20.48h-61.44V1024H1024v-33.792h-13.312z" p-id="1989"></path></svg>